# xmcd
#
# Track frame offsets:
#	150
#	19402
#	33691
#	53144
#	66097
#	84149
#	101067
#	116157
#	127520
#	142136
#	151407
#	164932
#	182210
#	195467
#
# Disc length: 3080 seconds
# Revision: 0
# Processed by: cddbd v1.5.2PL0 Copyright (c) Steve Scherf et al.
# Submitted via: dBpowerAMP V12.0
#
DISCID=c60c060e
DTITLE=Alhambra Valley Band - Willow Pass Road
DYEAR=1900
DGENRE=Bluegrass
TTITLE0=Slowboat
TTITLE1=Why Don't You Tell Me So
TTITLE2=Highway of Pain
TTITLE3=Thunderclouds of Love
TTITLE4=Before This Mountain
TTITLE5=Sheepdipper Blues
TTITLE6=Willow Pass Road
TTITLE7=Till the End of the World Rolls Round
TTITLE8=The Birds Have Returned
TTITLE9=Nobody But You
TTITLE10=Give Mother My Crown
TTITLE11=Southern Flavor
TTITLE12=Big Mon Said It Best
TTITLE13=Just Let It Rain
EXTD=
EXTT0=
EXTT1=
EXTT2=
EXTT3=
EXTT4=
EXTT5=
EXTT6=
EXTT7=
EXTT8=
EXTT9=
EXTT10=
EXTT11=
EXTT12=
EXTT13=
PLAYORDER=
